<svg width="20" height="20" viewBox="0 0 20 20" fill="none" xmlns="http://www.w3.org/2000/svg">
<path d="M13.5986 14.6894C9.80184 17.4842 4.71672 16.7046 1.95232 13.4454C-0.8974 10.0949 -0.53052 5.35947 2.42158 2.47342C5.54433 -0.586778 10.3735 -0.835575 13.7949 1.88461C17.1736 4.56332 17.9927 9.57243 15.0917 13.238C15.1429 13.2961 15.2027 13.3541 15.2624 13.4122C16.7214 14.8303 18.1804 16.2485 19.6393 17.6666C20.1171 18.131 20.083 18.8194 19.5796 19.2175C19.153 19.5492 18.5643 19.5077 18.1548 19.1096C17.1309 18.1228 16.1156 17.1276 15.0917 16.1324C14.5883 15.6514 14.0935 15.1704 13.5986 14.6894ZM14.7505 8.22893C14.759 4.85358 11.9349 2.10023 8.44524 2.08364C4.97268 2.05876 2.11443 4.8287 2.1059 8.22063C2.09736 11.596 4.92149 14.3493 8.41111 14.3659C11.8837 14.3908 14.7419 11.6209 14.7505 8.22893Z" fill="#8D9193"/>
</svg>
